# xmcd CD database file
#
# Track frame offsets:
#	150
#	36682
#	54172
#	90022
#	122532
#	139515
#	186032
#	203537
#	228397
#	272650
#
# Disc length: 4034 seconds
#
# Revision: 2
# Processed by: cddbd v1.5.1PL0 Copyright (c) Steve Scherf et al.
# Submitted via: CDex 1.51
#
DISCID=790fc00a
DTITLE=Gudmundur Ingolfsson - Gudmundur  Ingolfsson (Diskur 1)
DYEAR=1994
DGENRE=Jazz
TTITLE0=Tryggvi
TTITLE1=Take the A train
TTITLE2=Flintstone theme
TTITLE3=Bourgosis blues
TTITLE4=Og reven låg under birkerod
TTITLE5=Briar bush
TTITLE6=No moon at all
TTITLE7=Þey, þey og ró, ró
TTITLE8=Blue Monk
TTITLE9=Litfríð og ljóshærð
EXTD=YEAR: 1994
EXTT0=
EXTT1=
EXTT2=
EXTT3=
EXTT4=
EXTT5=
EXTT6=
EXTT7=
EXTT8=
EXTT9=
PLAYORDER=
